<svg width="112" height="29" viewBox="0 0 112 29" fill="none" xmlns="http://www.w3.org/2000/svg">
<g id="skilled">
<path id="Path" d="M9.68399 28.4321C7.52399 28.4321 5.64599 27.9221 4.04999 26.9021C2.45399 25.8821 1.36799 24.5081 0.791992 22.7801L4.75199 20.9081C5.25599 21.9641 5.93999 22.7921 6.80399 23.3921C7.66799 23.9921 8.62799 24.2921 9.68399 24.2921C10.452 24.2921 11.04 24.1361 11.448 23.8241C11.856 23.5121 12.06 23.0801 12.06 22.5281C12.06 22.2401 11.988 21.9941 11.844 21.7901C11.7 21.5861 11.484 21.4001 11.196 21.2321C10.908 21.0641 10.548 20.9201 10.116 20.8001L6.76799 19.8641C5.15999 19.4081 3.92399 18.6701 3.05999 17.6501C2.19599 16.6301 1.76399 15.4241 1.76399 14.0321C1.76399 12.8081 2.07599 11.7401 2.69999 10.8281C3.32399 9.91611 4.19999 9.20211 5.32799 8.68611C6.45599 8.17011 7.75199 7.91211 9.21599 7.91211C11.136 7.91211 12.822 8.36211 14.274 9.26211C15.726 10.1621 16.752 11.4281 17.352 13.0601L13.356 14.9321C13.068 14.1161 12.546 13.4621 11.79 12.9701C11.034 12.4781 10.176 12.2321 9.21599 12.2321C8.51999 12.2321 7.97399 12.3761 7.57799 12.6641C7.18199 12.9521 6.98399 13.3481 6.98399 13.8521C6.98399 14.1161 7.05599 14.3561 7.19999 14.5721C7.34399 14.7881 7.57799 14.9801 7.90199 15.1481C8.22599 15.3161 8.62799 15.4721 9.10799 15.6161L12.24 16.5521C13.872 17.0321 15.12 17.7581 15.984 18.7301C16.848 19.7021 17.28 20.8961 17.28 22.3121C17.28 23.5361 16.962 24.6041 16.326 25.5161C15.69 26.4281 14.808 27.1421 13.68 27.6581C12.552 28.1741 11.22 28.4321 9.68399 28.4321Z" fill="white"/>
<path id="Path_2" d="M20.52 28V0.748047H25.92V18.208L23.904 17.56L32.58 8.34405H39.24L32.112 16.264L39.204 28H33.084L27.144 18.028L30.276 17.236L24.264 23.788L25.92 20.656V28H20.52Z" fill="white"/>
<path id="Shape" fill-rule="evenodd" clip-rule="evenodd" d="M41.616 1.17993V6.57993H47.016V1.17993H41.616ZM41.616 8.34393V27.9999H47.016V8.34393H41.616Z" fill="white"/>
<path id="Path_3" d="M50.9761 28V0.748047H56.3761V28H50.9761Z" fill="white"/>
<path id="Path_4" d="M60.3359 28V0.748047H65.7359V28H60.3359Z" fill="white"/>
<path id="Path_5" d="M79.1641 28.4321C77.0761 28.4321 75.2641 27.9701 73.7281 27.0461C72.1921 26.1221 71.0041 24.8801 70.1641 23.3201C69.3241 21.7601 68.9041 20.0321 68.9041 18.1361C68.9041 16.1681 69.3421 14.4161 70.2181 12.8801C71.0941 11.3441 72.2761 10.1321 73.7641 9.24411C75.2521 8.35611 76.9321 7.91211 78.8041 7.91211C80.3641 7.91211 81.7441 8.15811 82.9441 8.65011C84.1441 9.14211 85.1581 9.83211 85.9861 10.7201C86.8141 11.6081 87.4441 12.6341 87.8761 13.7981C88.3081 14.9621 88.5241 16.2281 88.5241 17.5961C88.5241 17.9801 88.5061 18.3581 88.4701 18.7301C88.4341 19.1021 88.3681 19.4201 88.2721 19.6841H73.5481V15.7241H85.2121L82.6561 17.5961C82.8961 16.5641 82.8841 15.6461 82.6201 14.8421C82.3561 14.0381 81.8941 13.4021 81.2341 12.9341C80.5741 12.4661 79.7641 12.2321 78.8041 12.2321C77.8681 12.2321 77.0641 12.4601 76.3921 12.9161C75.7201 13.3721 75.2161 14.0441 74.8801 14.9321C74.5441 15.8201 74.4121 16.9001 74.4841 18.1721C74.3881 19.2761 74.5201 20.2481 74.8801 21.0881C75.2401 21.9281 75.7921 22.5821 76.5361 23.0501C77.2801 23.5181 78.1801 23.7521 79.2361 23.7521C80.1961 23.7521 81.0181 23.5601 81.7021 23.1761C82.3861 22.7921 82.9201 22.2641 83.3041 21.5921L87.6241 23.6441C87.2401 24.6041 86.6341 25.4441 85.8061 26.1641C84.9781 26.8841 84.0001 27.4421 82.8721 27.8381C81.7441 28.2341 80.5081 28.4321 79.1641 28.4321Z" fill="white"/>
<path id="Shape_2" fill-rule="evenodd" clip-rule="evenodd" d="M95.7959 27.064C97.3079 27.976 99.0239 28.432 100.944 28.432C102.288 28.432 103.536 28.186 104.688 27.694C105.574 27.3157 106.318 26.7989 106.92 26.1437V28H111.96V0.748047H106.56V9.99442C106.045 9.48361 105.439 9.05949 104.742 8.72205C103.626 8.18205 102.348 7.91205 100.908 7.91205C99.0359 7.91205 97.3439 8.36805 95.8319 9.28005C94.3199 10.192 93.1199 11.422 92.2319 12.97C91.3439 14.518 90.8999 16.252 90.8999 18.172C90.8999 20.068 91.3379 21.796 92.2139 23.356C93.0899 24.916 94.2839 26.152 95.7959 27.064ZM104.184 22.888C103.44 23.344 102.576 23.572 101.592 23.572C100.608 23.572 99.7259 23.344 98.9459 22.888C98.1659 22.432 97.5599 21.796 97.1279 20.98C96.6959 20.164 96.4799 19.228 96.4799 18.172C96.4799 17.116 96.6959 16.186 97.1279 15.382C97.5599 14.578 98.1659 13.942 98.9459 13.474C99.7259 13.006 100.608 12.772 101.592 12.772C102.576 12.772 103.44 13 104.184 13.456C104.928 13.912 105.51 14.548 105.93 15.364C106.35 16.18 106.56 17.116 106.56 18.172C106.56 19.228 106.35 20.164 105.93 20.98C105.51 21.796 104.928 22.432 104.184 22.888Z" fill="white"/>
</g>
</svg>
